<mxfile host="app.diagrams.net" modified="2024-03-31T17:56:35.257Z" agent="Mozilla/5.0 (Windows NT 10.0; Win64; x64) AppleWebKit/537.36 (KHTML, like Gecko) Chrome/123.0.0.0 Safari/537.36" etag="DLFszwFrGALEIBd04qP3" version="24.2.1" type="device">
  <diagram name="Page-1" id="xDFbSy6HNDZAhjBDgOxl">
    <mxGraphModel dx="1434" dy="738" grid="0" gridSize="10" guides="1" tooltips="1" connect="1" arrows="1" fold="1" page="1" pageScale="1" pageWidth="850" pageHeight="1100" math="0" shadow="0">
      <root>
        <mxCell id="0" />
        <mxCell id="1" parent="0" />
        <mxCell id="DiDdIuaTlxyAD_moarf--199" value="" style="rounded=0;whiteSpace=wrap;html=1;" vertex="1" parent="1">
          <mxGeometry x="557" y="1308" width="181" height="122" as="geometry" />
        </mxCell>
        <mxCell id="DiDdIuaTlxyAD_moarf--29" style="edgeStyle=orthogonalEdgeStyle;rounded=0;orthogonalLoop=1;jettySize=auto;html=1;exitX=1;exitY=0.5;exitDx=0;exitDy=0;entryX=1;entryY=0.75;entryDx=0;entryDy=0;curved=1;" edge="1" parent="1" source="DiDdIuaTlxyAD_moarf--95">
          <mxGeometry relative="1" as="geometry">
            <mxPoint x="380" y="1239" as="sourcePoint" />
            <mxPoint x="380" y="1269" as="targetPoint" />
            <Array as="points">
              <mxPoint x="380" y="1247" />
              <mxPoint x="420" y="1247" />
              <mxPoint x="420" y="1269" />
            </Array>
          </mxGeometry>
        </mxCell>
        <mxCell id="DiDdIuaTlxyAD_moarf--30" value="See feedback" style="text;html=1;align=center;verticalAlign=middle;resizable=0;points=[];autosize=1;strokeColor=none;fillColor=none;" vertex="1" parent="1">
          <mxGeometry x="419" y="1246" width="91" height="26" as="geometry" />
        </mxCell>
        <mxCell id="DiDdIuaTlxyAD_moarf--67" style="edgeStyle=orthogonalEdgeStyle;rounded=0;orthogonalLoop=1;jettySize=auto;html=1;exitX=1;exitY=0.5;exitDx=0;exitDy=0;entryX=0;entryY=0.5;entryDx=0;entryDy=0;" edge="1" parent="1" source="DiDdIuaTlxyAD_moarf--68" target="DiDdIuaTlxyAD_moarf--87">
          <mxGeometry relative="1" as="geometry">
            <mxPoint x="278" y="1096" as="targetPoint" />
          </mxGeometry>
        </mxCell>
        <mxCell id="DiDdIuaTlxyAD_moarf--68" value="&lt;b&gt;Search Products and Supermarkets&lt;/b&gt;" style="ellipse;whiteSpace=wrap;html=1;aspect=fixed;" vertex="1" parent="1">
          <mxGeometry x="108" y="1046" width="100" height="100" as="geometry" />
        </mxCell>
        <mxCell id="DiDdIuaTlxyAD_moarf--83" value="Plots" style="swimlane;fontStyle=0;childLayout=stackLayout;horizontal=1;startSize=30;horizontalStack=0;resizeParent=1;resizeParentMax=0;resizeLast=0;collapsible=1;marginBottom=0;whiteSpace=wrap;html=1;" vertex="1" parent="1">
          <mxGeometry x="38" y="866" width="409" height="90" as="geometry" />
        </mxCell>
        <mxCell id="DiDdIuaTlxyAD_moarf--84" value="&lt;b style=&quot;border-color: var(--border-color); text-align: center;&quot;&gt;Supermarkets&#39; Home -&amp;gt;&amp;nbsp;&lt;/b&gt;&lt;b style=&quot;border-color: var(--border-color); text-align: center;&quot;&gt;Supermarket&#39;s Categories -&amp;gt;&amp;nbsp;&lt;/b&gt;&lt;b style=&quot;border-color: var(--border-color); text-align: center;&quot;&gt;Product&#39;s&amp;nbsp;&lt;/b&gt;&lt;b style=&quot;text-align: center; background-color: initial; border-color: var(--border-color);&quot;&gt;forum&lt;/b&gt;" style="text;strokeColor=none;fillColor=none;align=left;verticalAlign=middle;spacingLeft=4;spacingRight=4;overflow=hidden;points=[[0,0.5],[1,0.5]];portConstraint=eastwest;rotatable=0;whiteSpace=wrap;html=1;" vertex="1" parent="DiDdIuaTlxyAD_moarf--83">
          <mxGeometry y="30" width="409" height="30" as="geometry" />
        </mxCell>
        <mxCell id="DiDdIuaTlxyAD_moarf--85" value="&lt;b style=&quot;border-color: var(--border-color); text-align: center;&quot;&gt;Supermarkets&#39; Home -&lt;/b&gt;&lt;b style=&quot;border-color: var(--border-color); text-align: center;&quot;&gt;&amp;gt;&amp;nbsp;&lt;/b&gt;&lt;b style=&quot;border-color: var(--border-color); text-align: center;&quot;&gt;Product&#39;s&amp;nbsp;&lt;/b&gt;&lt;b style=&quot;border-color: var(--border-color); background-color: initial; text-align: center;&quot;&gt;forum&lt;/b&gt;" style="text;strokeColor=none;fillColor=none;align=left;verticalAlign=middle;spacingLeft=4;spacingRight=4;overflow=hidden;points=[[0,0.5],[1,0.5]];portConstraint=eastwest;rotatable=0;whiteSpace=wrap;html=1;" vertex="1" parent="DiDdIuaTlxyAD_moarf--83">
          <mxGeometry y="60" width="409" height="30" as="geometry" />
        </mxCell>
        <mxCell id="DiDdIuaTlxyAD_moarf--86" style="edgeStyle=orthogonalEdgeStyle;rounded=0;orthogonalLoop=1;jettySize=auto;html=1;exitX=0.5;exitY=0;exitDx=0;exitDy=0;dashed=1;endArrow=none;endFill=0;" edge="1" parent="1" source="DiDdIuaTlxyAD_moarf--68">
          <mxGeometry relative="1" as="geometry">
            <mxPoint x="158" y="956" as="targetPoint" />
          </mxGeometry>
        </mxCell>
        <mxCell id="DiDdIuaTlxyAD_moarf--94" style="edgeStyle=orthogonalEdgeStyle;rounded=0;orthogonalLoop=1;jettySize=auto;html=1;exitX=1;exitY=0.5;exitDx=0;exitDy=0;" edge="1" parent="1" source="DiDdIuaTlxyAD_moarf--87" target="DiDdIuaTlxyAD_moarf--93">
          <mxGeometry relative="1" as="geometry" />
        </mxCell>
        <mxCell id="DiDdIuaTlxyAD_moarf--96" style="edgeStyle=orthogonalEdgeStyle;rounded=0;orthogonalLoop=1;jettySize=auto;html=1;exitX=0.25;exitY=1;exitDx=0;exitDy=0;entryX=0.25;entryY=0;entryDx=0;entryDy=0;" edge="1" parent="1" source="DiDdIuaTlxyAD_moarf--87" target="DiDdIuaTlxyAD_moarf--95">
          <mxGeometry relative="1" as="geometry" />
        </mxCell>
        <mxCell id="DiDdIuaTlxyAD_moarf--87" value="&lt;b&gt;Supermarkets&#39; Home&lt;/b&gt;" style="rounded=0;whiteSpace=wrap;html=1;" vertex="1" parent="1">
          <mxGeometry x="260" y="1066" width="120" height="60" as="geometry" />
        </mxCell>
        <mxCell id="DiDdIuaTlxyAD_moarf--88" value="" style="curved=1;endArrow=classic;html=1;rounded=0;exitX=0.25;exitY=0;exitDx=0;exitDy=0;entryX=0.858;entryY=0;entryDx=0;entryDy=0;entryPerimeter=0;" edge="1" parent="1">
          <mxGeometry width="50" height="50" relative="1" as="geometry">
            <mxPoint x="283" y="1066" as="sourcePoint" />
            <mxPoint x="356" y="1066" as="targetPoint" />
            <Array as="points">
              <mxPoint x="293" y="1036" />
              <mxPoint x="343" y="1036" />
            </Array>
          </mxGeometry>
        </mxCell>
        <mxCell id="DiDdIuaTlxyAD_moarf--89" value="Select supermarket" style="text;html=1;align=center;verticalAlign=middle;resizable=0;points=[];autosize=1;strokeColor=none;fillColor=none;" vertex="1" parent="1">
          <mxGeometry x="264" y="1006" width="121" height="26" as="geometry" />
        </mxCell>
        <mxCell id="DiDdIuaTlxyAD_moarf--99" style="edgeStyle=orthogonalEdgeStyle;rounded=0;orthogonalLoop=1;jettySize=auto;html=1;exitX=0;exitY=0.75;exitDx=0;exitDy=0;entryX=1;entryY=0.75;entryDx=0;entryDy=0;" edge="1" parent="1" source="DiDdIuaTlxyAD_moarf--93" target="DiDdIuaTlxyAD_moarf--87">
          <mxGeometry relative="1" as="geometry" />
        </mxCell>
        <mxCell id="DiDdIuaTlxyAD_moarf--93" value="&lt;b&gt;Supermarket&#39;s Categories&lt;/b&gt;" style="rounded=0;whiteSpace=wrap;html=1;" vertex="1" parent="1">
          <mxGeometry x="568" y="1066" width="120" height="60" as="geometry" />
        </mxCell>
        <mxCell id="DiDdIuaTlxyAD_moarf--100" style="edgeStyle=orthogonalEdgeStyle;rounded=0;orthogonalLoop=1;jettySize=auto;html=1;exitX=0.75;exitY=0;exitDx=0;exitDy=0;entryX=0.75;entryY=1;entryDx=0;entryDy=0;" edge="1" parent="1" source="DiDdIuaTlxyAD_moarf--95" target="DiDdIuaTlxyAD_moarf--87">
          <mxGeometry relative="1" as="geometry" />
        </mxCell>
        <mxCell id="DiDdIuaTlxyAD_moarf--95" value="&lt;b&gt;Product&#39;s&lt;/b&gt;&lt;div&gt;&lt;b&gt;forum&lt;/b&gt;&lt;/div&gt;" style="rounded=0;whiteSpace=wrap;html=1;" vertex="1" parent="1">
          <mxGeometry x="260" y="1224" width="120" height="60" as="geometry" />
        </mxCell>
        <mxCell id="DiDdIuaTlxyAD_moarf--97" value="Search supermarket&#39;s products" style="text;html=1;align=center;verticalAlign=middle;resizable=0;points=[];autosize=1;strokeColor=none;fillColor=none;" vertex="1" parent="1">
          <mxGeometry x="382" y="1059" width="184" height="26" as="geometry" />
        </mxCell>
        <mxCell id="DiDdIuaTlxyAD_moarf--98" value="See product highlight" style="text;html=1;align=center;verticalAlign=middle;resizable=0;points=[];autosize=1;strokeColor=none;fillColor=none;" vertex="1" parent="1">
          <mxGeometry x="152" y="1162" width="131" height="26" as="geometry" />
        </mxCell>
        <mxCell id="DiDdIuaTlxyAD_moarf--101" value="Go back" style="text;html=1;align=center;verticalAlign=middle;resizable=0;points=[];autosize=1;strokeColor=none;fillColor=none;" vertex="1" parent="1">
          <mxGeometry x="438" y="1110" width="63" height="26" as="geometry" />
        </mxCell>
        <mxCell id="DiDdIuaTlxyAD_moarf--102" value="Go back" style="text;html=1;align=center;verticalAlign=middle;resizable=0;points=[];autosize=1;strokeColor=none;fillColor=none;" vertex="1" parent="1">
          <mxGeometry x="345" y="1162" width="63" height="26" as="geometry" />
        </mxCell>
        <mxCell id="DiDdIuaTlxyAD_moarf--104" value="Expand details" style="text;html=1;align=center;verticalAlign=middle;resizable=0;points=[];autosize=1;strokeColor=none;fillColor=none;" vertex="1" parent="1">
          <mxGeometry x="101" y="1252" width="97" height="26" as="geometry" />
        </mxCell>
        <mxCell id="DiDdIuaTlxyAD_moarf--109" value="Favourite product" style="text;html=1;align=center;verticalAlign=middle;resizable=0;points=[];autosize=1;strokeColor=none;fillColor=none;" vertex="1" parent="1">
          <mxGeometry x="94" y="1217" width="111" height="26" as="geometry" />
        </mxCell>
        <mxCell id="DiDdIuaTlxyAD_moarf--111" value="" style="curved=1;endArrow=classic;html=1;rounded=0;exitX=0.25;exitY=0;exitDx=0;exitDy=0;entryX=0.858;entryY=0;entryDx=0;entryDy=0;entryPerimeter=0;" edge="1" parent="1">
          <mxGeometry width="50" height="50" relative="1" as="geometry">
            <mxPoint x="593" y="1066" as="sourcePoint" />
            <mxPoint x="666" y="1066" as="targetPoint" />
            <Array as="points">
              <mxPoint x="603" y="1036" />
              <mxPoint x="653" y="1036" />
            </Array>
          </mxGeometry>
        </mxCell>
        <mxCell id="DiDdIuaTlxyAD_moarf--112" value="Select category" style="text;html=1;align=center;verticalAlign=middle;resizable=0;points=[];autosize=1;strokeColor=#b85450;fillColor=#f8cecc;" vertex="1" parent="1">
          <mxGeometry x="580" y="1006" width="101" height="26" as="geometry" />
        </mxCell>
        <mxCell id="DiDdIuaTlxyAD_moarf--113" style="edgeStyle=orthogonalEdgeStyle;rounded=0;orthogonalLoop=1;jettySize=auto;html=1;exitX=0.25;exitY=1;exitDx=0;exitDy=0;entryX=0.992;entryY=0.133;entryDx=0;entryDy=0;entryPerimeter=0;curved=1;" edge="1" parent="1" source="DiDdIuaTlxyAD_moarf--93" target="DiDdIuaTlxyAD_moarf--95">
          <mxGeometry relative="1" as="geometry" />
        </mxCell>
        <mxCell id="DiDdIuaTlxyAD_moarf--114" value="See product" style="text;html=1;align=center;verticalAlign=middle;resizable=0;points=[];autosize=1;strokeColor=#b85450;fillColor=#f8cecc;" vertex="1" parent="1">
          <mxGeometry x="459" y="1178" width="83" height="26" as="geometry" />
        </mxCell>
        <mxCell id="DiDdIuaTlxyAD_moarf--118" style="edgeStyle=orthogonalEdgeStyle;rounded=0;orthogonalLoop=1;jettySize=auto;html=1;exitX=1;exitY=0.25;exitDx=0;exitDy=0;entryX=0.85;entryY=1;entryDx=0;entryDy=0;entryPerimeter=0;curved=1;" edge="1" parent="1" source="DiDdIuaTlxyAD_moarf--95" target="DiDdIuaTlxyAD_moarf--93">
          <mxGeometry relative="1" as="geometry" />
        </mxCell>
        <mxCell id="DiDdIuaTlxyAD_moarf--119" value="Go back" style="text;html=1;align=center;verticalAlign=middle;resizable=0;points=[];autosize=1;strokeColor=none;fillColor=none;" vertex="1" parent="1">
          <mxGeometry x="614" y="1197" width="63" height="26" as="geometry" />
        </mxCell>
        <mxCell id="DiDdIuaTlxyAD_moarf--124" style="edgeStyle=orthogonalEdgeStyle;rounded=0;orthogonalLoop=1;jettySize=auto;html=1;exitX=1;exitY=0.5;exitDx=0;exitDy=0;entryX=0;entryY=0.5;entryDx=0;entryDy=0;" edge="1" parent="1" source="DiDdIuaTlxyAD_moarf--125" target="DiDdIuaTlxyAD_moarf--127">
          <mxGeometry relative="1" as="geometry">
            <mxPoint x="196.5" y="1478" as="targetPoint" />
          </mxGeometry>
        </mxCell>
        <mxCell id="DiDdIuaTlxyAD_moarf--125" value="&lt;b&gt;ScanQR&lt;/b&gt;" style="ellipse;whiteSpace=wrap;html=1;aspect=fixed;" vertex="1" parent="1">
          <mxGeometry x="26.5" y="1428" width="100" height="100" as="geometry" />
        </mxCell>
        <mxCell id="DiDdIuaTlxyAD_moarf--184" style="edgeStyle=orthogonalEdgeStyle;rounded=0;orthogonalLoop=1;jettySize=auto;html=1;exitX=1;exitY=0.5;exitDx=0;exitDy=0;entryX=0.5;entryY=1;entryDx=0;entryDy=0;curved=1;" edge="1" parent="1" source="DiDdIuaTlxyAD_moarf--127" target="DiDdIuaTlxyAD_moarf--95">
          <mxGeometry relative="1" as="geometry" />
        </mxCell>
        <mxCell id="DiDdIuaTlxyAD_moarf--127" value="&lt;b&gt;QRScanner&lt;/b&gt;" style="rounded=0;whiteSpace=wrap;html=1;" vertex="1" parent="1">
          <mxGeometry x="178.5" y="1448" width="120" height="60" as="geometry" />
        </mxCell>
        <mxCell id="DiDdIuaTlxyAD_moarf--129" value="Scan QR" style="text;html=1;align=center;verticalAlign=middle;resizable=0;points=[];autosize=1;strokeColor=#6c8ebf;fillColor=#dae8fc;" vertex="1" parent="1">
          <mxGeometry x="202.5" y="1531" width="67" height="26" as="geometry" />
        </mxCell>
        <mxCell id="DiDdIuaTlxyAD_moarf--132" value="See product&amp;nbsp;" style="text;html=1;align=center;verticalAlign=middle;resizable=0;points=[];autosize=1;strokeColor=#6c8ebf;fillColor=#dae8fc;" vertex="1" parent="1">
          <mxGeometry x="221" y="1420" width="86" height="26" as="geometry" />
        </mxCell>
        <mxCell id="DiDdIuaTlxyAD_moarf--141" style="edgeStyle=orthogonalEdgeStyle;rounded=0;orthogonalLoop=1;jettySize=auto;html=1;exitX=1;exitY=0.5;exitDx=0;exitDy=0;entryX=0;entryY=0.5;entryDx=0;entryDy=0;" edge="1" parent="1" source="DiDdIuaTlxyAD_moarf--142" target="DiDdIuaTlxyAD_moarf--144">
          <mxGeometry relative="1" as="geometry">
            <mxPoint x="196.5" y="1718" as="targetPoint" />
          </mxGeometry>
        </mxCell>
        <mxCell id="DiDdIuaTlxyAD_moarf--142" value="&lt;b&gt;See favourite products&lt;/b&gt;" style="ellipse;whiteSpace=wrap;html=1;aspect=fixed;" vertex="1" parent="1">
          <mxGeometry x="26.5" y="1668" width="100" height="100" as="geometry" />
        </mxCell>
        <mxCell id="DiDdIuaTlxyAD_moarf--183" style="edgeStyle=orthogonalEdgeStyle;rounded=0;orthogonalLoop=1;jettySize=auto;html=1;exitX=1;exitY=0.5;exitDx=0;exitDy=0;entryX=0.75;entryY=1;entryDx=0;entryDy=0;curved=1;" edge="1" parent="1" source="DiDdIuaTlxyAD_moarf--144" target="DiDdIuaTlxyAD_moarf--95">
          <mxGeometry relative="1" as="geometry" />
        </mxCell>
        <mxCell id="DiDdIuaTlxyAD_moarf--144" value="&lt;b&gt;Favourite Products&lt;/b&gt;" style="rounded=0;whiteSpace=wrap;html=1;" vertex="1" parent="1">
          <mxGeometry x="178.5" y="1688" width="120" height="60" as="geometry" />
        </mxCell>
        <mxCell id="DiDdIuaTlxyAD_moarf--146" value="Unfavourite" style="text;html=1;align=center;verticalAlign=middle;resizable=0;points=[];autosize=1;strokeColor=none;fillColor=none;" vertex="1" parent="1">
          <mxGeometry x="196.5" y="1775" width="79" height="26" as="geometry" />
        </mxCell>
        <mxCell id="DiDdIuaTlxyAD_moarf--155" style="edgeStyle=orthogonalEdgeStyle;rounded=0;orthogonalLoop=1;jettySize=auto;html=1;exitX=0;exitY=0;exitDx=0;exitDy=0;entryX=0;entryY=0.25;entryDx=0;entryDy=0;curved=1;" edge="1" parent="1" source="DiDdIuaTlxyAD_moarf--95" target="DiDdIuaTlxyAD_moarf--95">
          <mxGeometry relative="1" as="geometry">
            <Array as="points">
              <mxPoint x="211" y="1224" />
              <mxPoint x="211" y="1239" />
            </Array>
          </mxGeometry>
        </mxCell>
        <mxCell id="DiDdIuaTlxyAD_moarf--156" style="edgeStyle=orthogonalEdgeStyle;rounded=0;orthogonalLoop=1;jettySize=auto;html=1;exitX=0;exitY=0.5;exitDx=0;exitDy=0;entryX=0;entryY=0.75;entryDx=0;entryDy=0;curved=1;" edge="1" parent="1" source="DiDdIuaTlxyAD_moarf--95" target="DiDdIuaTlxyAD_moarf--95">
          <mxGeometry relative="1" as="geometry">
            <Array as="points">
              <mxPoint x="211" y="1254" />
              <mxPoint x="211" y="1269" />
            </Array>
          </mxGeometry>
        </mxCell>
        <mxCell id="DiDdIuaTlxyAD_moarf--157" style="edgeStyle=orthogonalEdgeStyle;rounded=0;orthogonalLoop=1;jettySize=auto;html=1;exitX=0.25;exitY=1;exitDx=0;exitDy=0;entryX=0.75;entryY=1;entryDx=0;entryDy=0;curved=1;" edge="1" parent="1" source="DiDdIuaTlxyAD_moarf--127" target="DiDdIuaTlxyAD_moarf--127">
          <mxGeometry relative="1" as="geometry" />
        </mxCell>
        <mxCell id="DiDdIuaTlxyAD_moarf--158" style="edgeStyle=orthogonalEdgeStyle;rounded=0;orthogonalLoop=1;jettySize=auto;html=1;exitX=0.25;exitY=1;exitDx=0;exitDy=0;entryX=0.75;entryY=1;entryDx=0;entryDy=0;curved=1;" edge="1" parent="1" source="DiDdIuaTlxyAD_moarf--144" target="DiDdIuaTlxyAD_moarf--144">
          <mxGeometry relative="1" as="geometry" />
        </mxCell>
        <mxCell id="DiDdIuaTlxyAD_moarf--169" value="See product&amp;nbsp;" style="text;html=1;align=center;verticalAlign=middle;resizable=0;points=[];autosize=1;strokeColor=none;fillColor=none;" vertex="1" parent="1">
          <mxGeometry x="329.5" y="1688" width="86" height="26" as="geometry" />
        </mxCell>
        <mxCell id="DiDdIuaTlxyAD_moarf--185" value="Plots" style="swimlane;fontStyle=0;childLayout=stackLayout;horizontal=1;startSize=30;horizontalStack=0;resizeParent=1;resizeParentMax=0;resizeLast=0;collapsible=1;marginBottom=0;whiteSpace=wrap;html=1;" vertex="1" parent="1">
          <mxGeometry x="5" y="1319" width="240" height="60" as="geometry" />
        </mxCell>
        <mxCell id="DiDdIuaTlxyAD_moarf--186" value="&lt;b style=&quot;border-color: var(--border-color); text-align: center;&quot;&gt;&lt;b style=&quot;border-color: var(--border-color);&quot;&gt;QRScanner&lt;/b&gt;&amp;nbsp;-&lt;/b&gt;&lt;b style=&quot;border-color: var(--border-color); text-align: center;&quot;&gt;&amp;gt;&amp;nbsp;&lt;/b&gt;&lt;b style=&quot;border-color: var(--border-color); text-align: center;&quot;&gt;Product&#39;s&amp;nbsp;&lt;/b&gt;&lt;b style=&quot;border-color: var(--border-color); background-color: initial; text-align: center;&quot;&gt;forum&lt;/b&gt;" style="text;strokeColor=none;fillColor=none;align=left;verticalAlign=middle;spacingLeft=4;spacingRight=4;overflow=hidden;points=[[0,0.5],[1,0.5]];portConstraint=eastwest;rotatable=0;whiteSpace=wrap;html=1;" vertex="1" parent="DiDdIuaTlxyAD_moarf--185">
          <mxGeometry y="30" width="240" height="30" as="geometry" />
        </mxCell>
        <mxCell id="DiDdIuaTlxyAD_moarf--197" value="" style="text;html=1;align=center;verticalAlign=middle;resizable=0;points=[];autosize=1;strokeColor=#b85450;fillColor=#f8cecc;" vertex="1" parent="1">
          <mxGeometry x="566" y="1321" width="50" height="44" as="geometry" />
        </mxCell>
        <mxCell id="DiDdIuaTlxyAD_moarf--198" value="" style="text;html=1;align=center;verticalAlign=middle;resizable=0;points=[];autosize=1;strokeColor=#6c8ebf;fillColor=#dae8fc;" vertex="1" parent="1">
          <mxGeometry x="566" y="1372" width="50" height="44" as="geometry" />
        </mxCell>
        <mxCell id="DiDdIuaTlxyAD_moarf--200" value="To see product, category must be&amp;nbsp; selected" style="text;html=1;align=center;verticalAlign=middle;whiteSpace=wrap;rounded=0;" vertex="1" parent="1">
          <mxGeometry x="618" y="1331" width="110" height="30" as="geometry" />
        </mxCell>
        <mxCell id="DiDdIuaTlxyAD_moarf--201" value="To see product, QR must be scanned" style="text;html=1;align=center;verticalAlign=middle;whiteSpace=wrap;rounded=0;" vertex="1" parent="1">
          <mxGeometry x="620" y="1379" width="110" height="30" as="geometry" />
        </mxCell>
        <mxCell id="DiDdIuaTlxyAD_moarf--203" style="edgeStyle=orthogonalEdgeStyle;rounded=0;orthogonalLoop=1;jettySize=auto;html=1;exitX=0.5;exitY=0;exitDx=0;exitDy=0;entryX=0.3;entryY=1;entryDx=0;entryDy=0;entryPerimeter=0;dashed=1;endArrow=none;endFill=0;" edge="1" parent="1" source="DiDdIuaTlxyAD_moarf--125" target="DiDdIuaTlxyAD_moarf--186">
          <mxGeometry relative="1" as="geometry" />
        </mxCell>
        <mxCell id="DiDdIuaTlxyAD_moarf--204" value="Plots" style="swimlane;fontStyle=0;childLayout=stackLayout;horizontal=1;startSize=30;horizontalStack=0;resizeParent=1;resizeParentMax=0;resizeLast=0;collapsible=1;marginBottom=0;whiteSpace=wrap;html=1;" vertex="1" parent="1">
          <mxGeometry x="5" y="1557" width="240" height="60" as="geometry" />
        </mxCell>
        <mxCell id="DiDdIuaTlxyAD_moarf--205" value="&lt;b style=&quot;border-color: var(--border-color); text-align: center;&quot;&gt;&lt;b style=&quot;border-color: var(--border-color);&quot;&gt;Favourite Products&lt;/b&gt;&amp;nbsp;-&lt;/b&gt;&lt;b style=&quot;border-color: var(--border-color); text-align: center;&quot;&gt;&amp;gt;&amp;nbsp;&lt;/b&gt;&lt;b style=&quot;border-color: var(--border-color); text-align: center;&quot;&gt;Product&#39;s&amp;nbsp;&lt;/b&gt;&lt;b style=&quot;border-color: var(--border-color); background-color: initial; text-align: center;&quot;&gt;forum&lt;/b&gt;" style="text;strokeColor=none;fillColor=none;align=left;verticalAlign=middle;spacingLeft=4;spacingRight=4;overflow=hidden;points=[[0,0.5],[1,0.5]];portConstraint=eastwest;rotatable=0;whiteSpace=wrap;html=1;" vertex="1" parent="DiDdIuaTlxyAD_moarf--204">
          <mxGeometry y="30" width="240" height="30" as="geometry" />
        </mxCell>
        <mxCell id="DiDdIuaTlxyAD_moarf--207" style="edgeStyle=orthogonalEdgeStyle;rounded=0;orthogonalLoop=1;jettySize=auto;html=1;exitX=0.5;exitY=0;exitDx=0;exitDy=0;entryX=0.3;entryY=1;entryDx=0;entryDy=0;entryPerimeter=0;dashed=1;endArrow=none;endFill=0;" edge="1" parent="1" source="DiDdIuaTlxyAD_moarf--142" target="DiDdIuaTlxyAD_moarf--205">
          <mxGeometry relative="1" as="geometry" />
        </mxCell>
        <mxCell id="DiDdIuaTlxyAD_moarf--208" value="User ignores highlights and decides to search a certain supermarket´s products" style="text;html=1;align=center;verticalAlign=middle;resizable=0;points=[];autosize=1;strokeColor=none;fillColor=none;" vertex="1" parent="1">
          <mxGeometry x="443" y="898" width="440" height="26" as="geometry" />
        </mxCell>
        <mxCell id="DiDdIuaTlxyAD_moarf--209" value="User finds interest in one of the product´s highlights" style="text;html=1;align=center;verticalAlign=middle;resizable=0;points=[];autosize=1;strokeColor=none;fillColor=none;" vertex="1" parent="1">
          <mxGeometry x="518" y="924" width="291" height="26" as="geometry" />
        </mxCell>
        <mxCell id="DiDdIuaTlxyAD_moarf--210" style="edgeStyle=orthogonalEdgeStyle;rounded=0;orthogonalLoop=1;jettySize=auto;html=1;exitX=0;exitY=1;exitDx=0;exitDy=0;entryX=0.25;entryY=1;entryDx=0;entryDy=0;curved=1;" edge="1" parent="1" source="DiDdIuaTlxyAD_moarf--95" target="DiDdIuaTlxyAD_moarf--95">
          <mxGeometry relative="1" as="geometry">
            <Array as="points">
              <mxPoint x="260" y="1304" />
              <mxPoint x="290" y="1304" />
            </Array>
          </mxGeometry>
        </mxCell>
        <mxCell id="DiDdIuaTlxyAD_moarf--211" value="Give feedback" style="text;html=1;align=center;verticalAlign=middle;resizable=0;points=[];autosize=1;strokeColor=none;fillColor=none;" vertex="1" parent="1">
          <mxGeometry x="157" y="1282" width="95" height="26" as="geometry" />
        </mxCell>
      </root>
    </mxGraphModel>
  </diagram>
</mxfile>
